<mxfile host="app.diagrams.net" modified="2024-04-27T13:13:52.922Z" agent="Mozilla/5.0 (Windows NT 10.0; Win64; x64) AppleWebKit/537.36 (KHTML, like Gecko) Chrome/123.0.0.0 Safari/537.36" etag="Ayg6moGWna_6kmLXBPk2" version="24.2.7" type="github">
  <diagram name="Страница — 1" id="Y3avKlv_m7tPCw0b9_SA">
    <mxGraphModel dx="1379" dy="611" grid="1" gridSize="10" guides="1" tooltips="1" connect="1" arrows="1" fold="1" page="1" pageScale="1" pageWidth="827" pageHeight="1169" math="0" shadow="0">
      <root>
        <mxCell id="0" />
        <mxCell id="1" parent="0" />
        <mxCell id="aERr8HuHTmbQ53Nf8TC8-1" value="Pool" style="swimlane;html=1;childLayout=stackLayout;resizeParent=1;resizeParentMax=0;horizontal=0;startSize=20;horizontalStack=0;whiteSpace=wrap;" vertex="1" parent="1">
          <mxGeometry x="150" y="80" width="480" height="360" as="geometry" />
        </mxCell>
        <mxCell id="aERr8HuHTmbQ53Nf8TC8-2" value="Lane 1" style="swimlane;html=1;startSize=20;horizontal=0;" vertex="1" parent="aERr8HuHTmbQ53Nf8TC8-1">
          <mxGeometry x="20" width="460" height="120" as="geometry" />
        </mxCell>
        <mxCell id="aERr8HuHTmbQ53Nf8TC8-3" value="Lane 2" style="swimlane;html=1;startSize=20;horizontal=0;" vertex="1" parent="aERr8HuHTmbQ53Nf8TC8-1">
          <mxGeometry x="20" y="120" width="460" height="120" as="geometry" />
        </mxCell>
        <mxCell id="aERr8HuHTmbQ53Nf8TC8-4" value="Lane 3" style="swimlane;html=1;startSize=20;horizontal=0;" vertex="1" parent="aERr8HuHTmbQ53Nf8TC8-1">
          <mxGeometry x="20" y="240" width="460" height="120" as="geometry" />
        </mxCell>
      </root>
    </mxGraphModel>
  </diagram>
</mxfile>
